<svg xmlns="http://www.w3.org/2000/svg" width="64" height="64" viewBox="0 0 64 64" fill="none">
  <!-- 渐变圆形背景 -->
  <circle cx="32" cy="32" r="30" fill="url(#gradient)" stroke="#7C8DB5" stroke-width="2"/>

  <!-- 盾牌轮廓（代表匿名保护） -->
  <path d="M32 18L22 24V30C22 40 27 47 32 50C37 47 42 40 42 30V24L32 18Z" fill="white"/>

  <!-- 对话气泡（代表反馈） -->
  <path d="M26 26H38C39.1 26 40 26.9 40 28V36C40 37.1 39.1 38 38 38H30L26 42V38C24.9 38 24 37.1 24 36V28C24 26.9 24.9 26 26 26Z" fill="#7C8DB5"/>

  <!-- 盾牌内的对话气泡细节 -->
  <path d="M30 32C30 33.1 30.9 34 32 34C33.1 34 34 33.1 34 32C34 30.9 33.1 30 32 30C30.9 30 30 30.9 30 32Z" fill="white"/>

  <defs>
    <linearGradient id="gradient" x1="32" y1="2" x2="32" y2="62" gradientUnits="userSpaceOnUse">
      <stop stop-color="#9CA8CC"/>
      <stop offset="1" stop-color="#7C8DB5"/>
    </linearGradient>
  </defs>
</svg>
